<?xml version="1.0" encoding="utf-8"?>
<!-- Generator: Adobe Illustrator 19.1.0, SVG Export Plug-In . SVG Version: 6.00 Build 0)  -->
<svg version="1.1" id="Layer_1" xmlns="http://www.w3.org/2000/svg" xmlns:xlink="http://www.w3.org/1999/xlink" x="0px" y="0px"
	 viewBox="-277.9 351.8 229.3 91.5" style="enable-background:new -277.9 351.8 229.3 91.5;" xml:space="preserve">
<style type="text/css">
	.st0{fill:#1B9DD8;}
	.st1{fill:#333;}
	.st2{fill-rule:evenodd;clip-rule:evenodd;fill:#1B9DD8;}
	.st3{fill-rule:evenodd;clip-rule:evenodd;fill:#333;}
</style>
<g>
	<g>
		<g>
			<path id="SVGID_1_" class="st0" d="M-138.4,387.7h-4.6c-1.2,0-2,0.3-2.6,0.7c-0.6,0.4-0.9,1.2-0.9,2.1c0,1.8,1.2,2.7,3.5,2.7
				c0.8,0,1.5-0.1,2.1-0.2c0.5-0.2,1.1-0.5,1.5-0.9c0.5-0.5,0.8-1.5,0.8-2.9v-1.5H-138.4z M-138.3,396.2v-1.7
				c-0.7,0.7-1.4,1.3-2.2,1.5c-0.8,0.3-1.7,0.5-3,0.5c-1.2,0-2.2-0.2-3.1-0.5c-0.9-0.3-1.6-0.7-2.2-1.4c-1-1.1-1.5-2.4-1.5-4.1
				c0-1.1,0.3-2.1,0.8-2.9c0.5-0.8,1.3-1.5,2.2-2c1-0.4,2.2-0.7,3.7-0.7h5.1v-1.4c0-1.3-0.4-2.2-1-2.7c-0.6-0.5-1.7-0.9-3.2-0.9
				c-1.1,0-1.9,0.2-2.5,0.4c-0.6,0.3-1.2,0.7-1.7,1.4l-2.5-2.4c0.9-1.1,1.9-1.8,2.9-2.2c1.1-0.5,2.4-0.6,4.1-0.6c5.3,0,8,2.2,8,6.7
				v13L-138.3,396.2L-138.3,396.2z M-153.4,392.9h1.6v3.3h-2.3c-1.2,0-2.2-0.3-2.9-0.7c-0.8-0.5-1.4-1.2-1.8-2s-0.6-1.7-0.6-2.7
				v-10.7h-2.2v-3h2.2v-5.9h3.9v5.9h3.8v3h-3.8v10.4C-155.6,392.2-154.9,392.9-153.4,392.9z M-167.9,387.7h-4.6
				c-1.2,0-2,0.3-2.6,0.7c-0.6,0.4-0.9,1.2-0.9,2.1c0,1.8,1.2,2.7,3.5,2.7c0.8,0,1.5-0.1,2.1-0.2c0.5-0.2,1.1-0.5,1.5-0.9
				c0.5-0.5,0.8-1.5,0.8-2.9v-1.5H-167.9z M-167.8,396.2v-1.7c-0.7,0.7-1.4,1.3-2.2,1.5s-1.7,0.5-3,0.5c-1.2,0-2.2-0.2-3.1-0.5
				c-0.9-0.3-1.6-0.7-2.2-1.4c-1-1.1-1.5-2.4-1.5-4.1c0-1.1,0.3-2.1,0.8-2.9c0.5-0.8,1.3-1.5,2.2-2c1-0.4,2.2-0.7,3.7-0.7h5.1v-1.4
				c0-1.3-0.4-2.2-1-2.7s-1.7-0.9-3.2-0.9c-1.1,0-1.9,0.2-2.5,0.4c-0.6,0.3-1.2,0.7-1.7,1.4l-2.5-2.4c0.9-1.1,1.9-1.8,2.9-2.2
				c1.1-0.5,2.4-0.6,4.1-0.6c5.3,0,8,2.2,8,6.7v13L-167.8,396.2L-167.8,396.2z M-186.2,378.8c-0.1-0.8-0.2-1.6-0.4-2.4
				c-0.2-0.7-0.5-1.4-1-1.9c-1.1-1.3-2.7-1.9-4.6-1.9h-5.1v19.8h5c2,0,3.5-0.6,4.6-1.8c0.6-0.7,1.1-1.7,1.2-2.9
				c0.2-1.3,0.3-3,0.3-5.3C-186.2,380.9-186.2,379.7-186.2,378.8z M-182.2,387.6c-0.1,1.1-0.4,2.2-0.8,3.2c-0.4,1.1-1,2-1.8,2.8
				c-1.7,1.7-4.1,2.5-7,2.5h-9.5V369h9.5c3,0,5.3,0.8,7,2.5c0.8,0.8,1.4,1.7,1.8,2.7c0.4,1,0.6,2.1,0.8,3.1c0.1,1.1,0.2,2.2,0.2,3.7
				v1.4v1.3C-182.1,385.3-182.1,386.5-182.2,387.6z"/>
		</g>
	</g>
	<g>
		<g>
			<path id="SVGID_3_" class="st1" d="M-77.6,383.9c-0.1-0.4-0.3-0.9-0.4-1.5c-0.4-1-1-1.7-1.9-2.2c-0.9-0.5-1.8-0.8-2.9-0.8
				c-1.1,0-2,0.3-2.9,0.8c-0.9,0.5-1.5,1.4-1.9,2.2c-0.3,0.6-0.4,1.1-0.4,1.5c-0.1,0.4-0.2,1.1-0.2,1.9h10.8
				C-77.5,385-77.5,384.3-77.6,383.9z M-88.3,387.4c0,2.3,0.5,4.1,1.5,5.4c1,1.3,2.5,1.9,4.4,1.9c1.1,0,2-0.2,2.7-0.5
				c0.7-0.4,1.5-0.9,2.3-1.7l1.4,1.2c-1,1-2,1.7-3,2.2c-1,0.4-2.2,0.6-3.7,0.6c-1.7,0-3.2-0.4-4.3-1.1c-1.2-0.7-2.1-1.8-2.6-3.1
				c-0.6-1.4-0.9-3.1-0.9-5.2c0-1.5,0.2-2.8,0.5-4c0.4-1.2,0.8-2.2,1.4-3s1.4-1.4,2.3-1.9c0.9-0.4,2-0.6,3.1-0.6
				c1.2,0,2.2,0.2,3.1,0.6c0.9,0.4,1.7,1,2.3,1.8c0.6,0.8,1.2,1.7,1.4,2.8c0.4,1.1,0.5,2.3,0.5,3.8v0.9H-88.3z M-94.4,394.5h1.3v1.7
				h-1.7c-0.9,0-1.7-0.2-2.4-0.6c-0.6-0.4-1.2-1-1.5-1.7c-0.4-0.7-0.5-1.5-0.5-2.5v-12.1h-2.5v-1.4h2.5V372h2v5.9h4.1v1.4h-4.1v12.1
				C-97.3,393.5-96.3,394.5-94.4,394.5z M-105.2,396.2h-2v-18.4h2V396.2z M-107.4,371.4V369h2.4v2.4H-107.4z M-116.4,372.3
				c-1.3-1.2-2.8-1.7-4.6-1.7c-1,0-1.9,0.2-2.8,0.5c-0.9,0.4-1.7,0.9-2.3,1.5c-0.5,0.4-0.9,1-1.2,1.5s-0.4,1.2-0.6,2
				c-0.2,0.8-0.3,1.7-0.3,2.7s-0.1,2.2-0.1,3.7c0,2.2,0,3.8,0.1,5c0.1,1.2,0.3,2.1,0.5,2.9c0.3,0.8,0.7,1.5,1.3,2.1
				c0.7,0.7,1.4,1.2,2.3,1.5c0.9,0.4,1.8,0.5,2.8,0.5c1.2,0,2.3-0.3,3.3-0.7s1.8-1.2,2.5-2.2c0.7-0.9,1.2-2,1.4-3.2h2
				c-0.3,1.6-0.9,3.1-1.7,4.2c-0.8,1.2-1.9,2.1-3.2,2.7c-1.3,0.6-2.7,1-4.3,1c-1.3,0-2.5-0.3-3.7-0.7c-1.2-0.4-2.2-1.2-3.1-2.1
				c-0.8-0.8-1.3-1.6-1.7-2.5c-0.4-0.9-0.5-1.9-0.6-3.1c-0.1-1.2-0.1-3-0.1-5.4s0-4.2,0.1-5.4c0.1-1.2,0.3-2.2,0.6-3.1
				s0.9-1.7,1.7-2.5c0.9-0.9,1.9-1.5,3.1-2.1c1.3-0.5,2.5-0.7,3.9-0.7c1.6,0,3.1,0.4,4.3,1s2.3,1.5,3.2,2.7c0.8,1.2,1.4,2.6,1.7,4.2
				h-2.1C-114.3,374.8-115.2,373.4-116.4,372.3z"/>
		</g>
	</g>
	<path class="st2" d="M-236.2,375.1c-0.3,0-0.5,0-0.8,0c7.6,0.8,14.3,3.7,11.6,8.4c-3,5.1-15.5,8.5-26.2,8.5
		c0.3,0.1,0.6,0.1,0.9,0.2c14.4,2.9,35.9-0.9,38.6-7.9C-210.1,378.6-222.1,374.6-236.2,375.1z"/>
	<path class="st3" d="M-220.2,391.9c-2.5,15.2-15.6,6.1-18.7-4.5c-4.5-10.9-0.5-25,10.7-16.8c-9.3-4.2-10.2,8.1-6.3,16.8
		c3.3,7.3,10.4,12,14,4.5C-220.4,392-220.2,392-220.2,391.9z"/>
</g>
</svg>
